<?xml version="1.0" encoding="UTF-8"?>
<svg xmlns="http://www.w3.org/2000/svg" viewBox="0 0 64 64" role="img" aria-label="Studio Daria favicon">
  <!-- White background + D outline extracted from the Ms Madi font (so it matches the logo everywhere). -->
  <rect width="64" height="64" rx="16" fill="#ffffff"/>
  <g transform="translate(6 12.3) scale(0.0577 -0.0577) translate(-22 -611)">
    <path fill="#2a2a2a" d="M242 -72Q219 -72 188.5 -68.0Q158 -64 136.0 -51.0Q114 -38 114 -11Q114 19 132.0 42.5Q150 66 179.0 83.5Q208 101 239.5 113.5Q271 126 298 134Q300 137 301.0 139.5Q302 142 303 145Q332 217 379.5 288.5Q427 360 473 424Q493 451 514.0 479.0Q535 507 557 532Q564 540 571.5 546.5Q579 553 587 560Q554 563 519 563Q484 563 449 560Q405 556 362.0 549.5Q319 543 276 531Q221 515 170.5 485.5Q120 456 88.0 413.5Q56 371 56 315Q56 299 59.5 282.5Q63 266 71 251Q79 235 89.5 225.5Q100 216 119 208Q124 206 127.5 203.5Q131 201 131 195Q131 189 126.5 184.0Q122 179 115 179Q114 179 112.5 179.5Q111 180 110 180Q79 188 59.5 210.5Q40 233 31.0 261.5Q22 290 22 315Q22 377 55.0 424.5Q88 472 142.5 505.5Q197 539 259 557Q305 571 352.0 577.5Q399 584 447 588Q464 590 481.5 590.0Q499 590 516 590Q541 590 565.5 589.0Q590 588 615 586Q620 590 624.0 593.5Q628 597 632 601Q635 606 638.0 608.5Q641 611 648 611Q663 611 663 598Q663 590 657 582Q707 575 754.0 560.0Q801 545 839.5 520.5Q878 496 900.5 459.5Q923 423 923 373Q923 313 894.0 257.5Q865 202 816.0 154.0Q767 106 706.0 67.0Q645 28 580.0 0.0Q515 -28 454 -43Q403 -56 349.0 -64.0Q295 -72 242 -72ZM232 -45Q285 -45 340.0 -36.5Q395 -28 446 -15Q502 -1 563.0 25.0Q624 51 682.5 87.5Q741 124 787.5 169.0Q834 214 862.0 265.5Q890 317 890 373Q890 421 866.5 454.0Q843 487 804.0 508.0Q765 529 718.5 540.5Q672 552 626 557Q615 547 604.5 536.0Q594 525 584 514Q556 481 520.0 433.5Q484 386 448.0 333.0Q412 280 382.5 230.0Q353 180 338 143Q377 150 417.0 154.5Q457 159 497 159Q523 159 553.0 153.5Q583 148 600 129Q602 127 603.0 125.0Q604 123 604 120Q604 114 598.5 110.0Q593 106 587 106Q579 106 573 112Q559 125 538.5 127.5Q518 130 498 130Q455 130 411.5 124.5Q368 119 326 110Q323 99 320.5 87.5Q318 76 318 65Q318 42 326.0 34.5Q334 27 342.0 25.0Q350 23 350 13Q350 8 345.5 3.5Q341 -1 335 -1Q330 -1 328 0Q309 8 300.5 25.0Q292 42 290.5 62.5Q289 83 290 98Q264 90 230.5 75.5Q197 61 172.5 39.5Q148 18 148 -12Q148 -27 164.0 -34.0Q180 -41 200.0 -43.0Q220 -45 232 -45Z"/>
  </g>
</svg>
